<?xml version="1.0" encoding="utf-8"?>
<svg viewBox="110.959 171.37 247.974 47.9621" width="247.974px" height="47.962px" xmlns="http://www.w3.org/2000/svg">
  <path id="path0" d="M 267.501 169.852 C 267.189 170.165 266.933 174.861 266.933 180.287 C 266.933 185.714 266.663 190.141 266.333 190.126 C 266.003 190.11 264.833 189.583 263.733 188.954 C 257.968 185.658 249.409 188.793 245.707 195.556 C 245.646 195.666 244.101 194.334 242.273 192.595 C 235.326 185.987 223.862 186.148 217.133 192.949 C 215.923 194.172 214.925 195.573 214.915 196.063 C 214.906 196.553 214.231 195.487 213.417 193.693 C 210.396 187.043 200.42 185.707 195.755 191.328 C 194.789 192.492 194.541 192.465 193.013 191.034 C 189.247 187.507 183.328 186.787 179.133 189.345 C 177.012 190.639 176.533 190.712 176.533 189.742 C 176.533 188.823 175.445 188.554 171.733 188.554 L 166.933 188.554 L 166.915 196.754 C 166.898 204.716 166.857 204.901 165.502 203.14 C 164.734 202.143 161.952 200.453 159.319 199.386 C 153.379 196.976 152.443 194.797 157.333 194.762 C 157.553 194.76 159.015 194.986 160.581 195.264 C 163.246 195.737 163.516 195.587 164.781 192.935 C 166.516 189.297 166.617 189.564 163.133 188.596 C 146.491 183.974 137.271 198.712 152.662 205.333 C 155.494 206.551 156.559 207.431 156.375 208.398 C 155.998 210.377 153.108 210.48 149.505 208.642 L 146.353 207.034 L 145.243 209.194 C 144.239 211.147 144.112 210.261 143.911 199.954 L 143.689 188.554 L 138.578 188.554 C 135.483 188.554 133.347 188.911 133.164 189.46 C 132.956 190.086 132.083 189.963 130.337 189.06 C 121.245 184.358 110.959 191.52 110.959 202.554 C 110.959 213.872 120.976 220.627 130.533 215.754 C 134.287 213.84 134.133 213.857 134.133 215.354 C 134.133 216.782 143.409 217.127 143.879 215.716 C 144.059 215.175 145.206 215.317 147.12 216.116 C 153.047 218.593 160.603 217.493 164.733 213.553 L 166.933 211.455 L 166.933 214.004 L 166.933 216.554 L 171.733 216.554 L 176.533 216.554 L 176.533 207.114 C 176.533 196.691 176.907 195.754 181.065 195.754 C 184.745 195.754 185.333 197.4 185.333 207.701 L 185.333 216.554 L 190.533 216.554 L 195.733 216.554 L 195.733 207.114 C 195.733 196.9 196.147 195.754 199.836 195.754 C 203.896 195.754 204.533 197.335 204.533 207.411 L 204.533 216.554 L 209.333 216.554 L 214.133 216.554 L 214.133 212.954 L 214.133 209.354 L 217.152 212.373 C 223.829 219.05 235.791 219.084 242.429 212.447 C 244.151 210.724 245.618 209.414 245.689 209.534 C 249.978 216.871 257.18 219.299 264.133 215.754 C 267.887 213.84 267.733 213.857 267.733 215.354 C 267.733 216.287 268.8 216.554 272.533 216.554 L 277.333 216.554 L 277.333 212.368 L 277.333 208.183 L 279.304 211.083 C 284.509 218.742 297.004 219.449 304.194 212.491 L 306.656 210.109 L 307.56 212.093 C 309.15 215.583 312.906 216.948 320.933 216.951 C 333.624 216.956 335.733 214.346 335.733 198.633 L 335.733 188.554 L 330.933 188.554 L 326.133 188.554 L 326.133 197.176 C 326.133 207.272 325.257 209.354 321.012 209.354 C 316.486 209.354 315.733 207.662 315.733 197.491 L 315.733 188.554 L 310.533 188.554 L 305.333 188.554 L 305.333 191.511 L 305.333 194.468 L 302.681 191.898 C 296.229 185.644 284.269 186.718 279.324 193.996 L 277.373 196.866 L 277.153 183.31 L 276.933 169.754 L 272.501 169.519 C 270.064 169.39 267.814 169.54 267.501 169.852 M 342.533 188.876 C 334.005 192.64 335.116 201.227 344.662 205.333 C 347.494 206.551 348.559 207.431 348.375 208.398 C 348 210.365 345.114 210.483 341.57 208.675 L 338.484 207.101 L 336.709 210.186 C 334.42 214.163 334.365 213.975 338.333 215.776 C 347.273 219.834 358.933 215.706 358.933 208.484 C 358.933 203.645 355.57 200.513 347.533 197.865 C 344.702 196.933 345.946 194.786 349.333 194.762 C 349.553 194.76 351.015 194.986 352.581 195.264 C 355.197 195.728 358.133 192.82 358.133 189.764 C 358.133 187.947 346.179 187.267 342.533 188.876 M 296.339 196.354 L 297.528 198.154 L 292.231 198.154 C 286.559 198.154 286.183 197.908 288.292 195.578 C 290.171 193.502 294.747 193.943 296.339 196.354 M 132.093 198.187 C 134.253 200.307 134.159 204.883 131.911 207.132 C 127.895 211.148 121.173 208.33 121.173 202.63 C 121.173 196.463 127.652 193.826 132.093 198.187 M 234.195 198.092 C 237.261 201.159 237.232 203.978 234.101 207.109 C 230.042 211.169 223.733 208.554 223.733 202.813 C 223.733 196.34 229.734 193.632 234.195 198.092 M 265.693 198.187 C 267.853 200.307 267.759 204.883 265.511 207.132 C 261.495 211.148 254.773 208.33 254.773 202.63 C 254.773 196.463 261.252 193.826 265.693 198.187 M 305.746 206.211 C 306.447 209.405 305.997 209.739 303.047 208.213 C 300.003 206.639 298.602 206.625 297.333 208.154 C 294.916 211.067 286.933 208.822 286.933 205.23 C 286.933 203.881 287.722 203.754 296.069 203.754 L 305.206 203.754 L 305.746 206.211" stroke="none" fill-rule="evenodd" style="fill: rgb(230, 230, 247);" transform="matrix(1, 0, 0, 1, 0, 1.8973329067230154)"/>
</svg>